<svg id="visual" viewBox="0 0 900 600" width="900" height="600" xmlns="http://www.w3.org/2000/svg" xmlns:xlink="http://www.w3.org/1999/xlink" version="1.1"><g stroke-width="1" stroke-linejoin="bevel"><path d="M429 306.9L434 332L449 332.9Z" fill="#fba241" stroke="#fba241"></path><path d="M429 306.9L389 314L434 332Z" fill="#fba241" stroke="#fba241"></path><path d="M439 397.6L498 336.9L449 332.9Z" fill="#f98924" stroke="#f98924"></path><path d="M449 332.9L456 247.1L429 306.9Z" fill="#fba241" stroke="#fba241"></path><path d="M389 314L379 318.9L434 332Z" fill="#fba241" stroke="#fba241"></path><path d="M498 336.9L456 247.1L449 332.9Z" fill="#fa9a37" stroke="#fa9a37"></path><path d="M429 306.9L376 265.1L389 314Z" fill="#fa9a37" stroke="#fa9a37"></path><path d="M389 314L376 265.1L379 318.9Z" fill="#ffc773" stroke="#ffc773"></path><path d="M427 396.7L439 397.6L434 332Z" fill="#f98924" stroke="#f98924"></path><path d="M434 332L439 397.6L449 332.9Z" fill="#fcaa4b" stroke="#fcaa4b"></path><path d="M378 382.7L427 396.7L434 332Z" fill="#fcb154" stroke="#fcb154"></path><path d="M456 247.1L376 265.1L429 306.9Z" fill="#fec069" stroke="#fec069"></path><path d="M525 345.7L528 322L498 336.9Z" fill="#fec069" stroke="#fec069"></path><path d="M498 336.9L532 272.1L456 247.1Z" fill="#ffc773" stroke="#ffc773"></path><path d="M518 367.9L525 345.7L498 336.9Z" fill="#fcaa4b" stroke="#fcaa4b"></path><path d="M439 397.6L518 367.9L498 336.9Z" fill="#fba241" stroke="#fba241"></path><path d="M376 265.1L351 322L379 318.9Z" fill="#fba241" stroke="#fba241"></path><path d="M379 318.9L378 382.7L434 332Z" fill="#fec069" stroke="#fec069"></path><path d="M351 322L358 352.7L379 318.9Z" fill="#f8801a" stroke="#f8801a"></path><path d="M358 352.7L378 382.7L379 318.9Z" fill="#fcb154" stroke="#fcb154"></path><path d="M456 247.1L375 250.3L376 265.1Z" fill="#fcaa4b" stroke="#fcaa4b"></path><path d="M306 329L320 338L351 322Z" fill="#f7770f" stroke="#f7770f"></path><path d="M528 322L532 272.1L498 336.9Z" fill="#ffc773" stroke="#ffc773"></path><path d="M456 247.1L388 223.1L375 250.3Z" fill="#f98924" stroke="#f98924"></path><path d="M450 197.3L388 223.1L456 247.1Z" fill="#f8801a" stroke="#f8801a"></path><path d="M452 467.6L513 409.6L439 397.6Z" fill="#ffc773" stroke="#ffc773"></path><path d="M439 397.6L513 409.6L518 367.9Z" fill="#fcb154" stroke="#fcb154"></path><path d="M587 355.7L571 317.9L525 345.7Z" fill="#f8801a" stroke="#f8801a"></path><path d="M514 212.3L450 197.3L456 247.1Z" fill="#f9922e" stroke="#f9922e"></path><path d="M528 322L556 276.1L532 272.1Z" fill="#fdb95e" stroke="#fdb95e"></path><path d="M532 272.1L514 212.3L456 247.1Z" fill="#fba241" stroke="#fba241"></path><path d="M571 317.9L556 276.1L528 322Z" fill="#f8801a" stroke="#f8801a"></path><path d="M571 317.9L528 322L525 345.7Z" fill="#f98924" stroke="#f98924"></path><path d="M306 329L351 322L299 308.9Z" fill="#f9922e" stroke="#f9922e"></path><path d="M351 322L320 338L358 352.7Z" fill="#f98924" stroke="#f98924"></path><path d="M358 352.7L283 396.7L378 382.7Z" fill="#f98924" stroke="#f98924"></path><path d="M351 322L376 265.1L299 308.9Z" fill="#fa9a37" stroke="#fa9a37"></path><path d="M545 203.4L514 212.3L532 272.1Z" fill="#f98924" stroke="#f98924"></path><path d="M563 396.6L525 345.7L518 367.9Z" fill="#f7770f" stroke="#f7770f"></path><path d="M473 176.4L435 188.4L450 197.3Z" fill="#fba241" stroke="#fba241"></path><path d="M450 197.3L435 188.4L388 223.1Z" fill="#fcaa4b" stroke="#fcaa4b"></path><path d="M605 321L576 313L571 317.9Z" fill="#f8801a" stroke="#f8801a"></path><path d="M571 317.9L576 313L556 276.1Z" fill="#f7770f" stroke="#f7770f"></path><path d="M299 308.9L376 265.1L295 247.1Z" fill="#fcaa4b" stroke="#fcaa4b"></path><path d="M429 471.4L427 396.7L341 451.4Z" fill="#fa9a37" stroke="#fa9a37"></path><path d="M383 176.4L370 198.3L388 223.1Z" fill="#f7770f" stroke="#f7770f"></path><path d="M388 223.1L370 198.3L375 250.3Z" fill="#f7770f" stroke="#f7770f"></path><path d="M576 313L574 270L556 276.1Z" fill="#fa9a37" stroke="#fa9a37"></path><path d="M556 276.1L576 243.1L532 272.1Z" fill="#fcb154" stroke="#fcb154"></path><path d="M303 238.3L376 265.1L375 250.3Z" fill="#f9922e" stroke="#f9922e"></path><path d="M514 212.3L473 176.4L450 197.3Z" fill="#f9922e" stroke="#f9922e"></path><path d="M435 188.4L383 176.4L388 223.1Z" fill="#fec069" stroke="#fec069"></path><path d="M513 409.6L563 396.6L518 367.9Z" fill="#f98924" stroke="#f98924"></path><path d="M563 396.6L587 355.7L525 345.7Z" fill="#fba241" stroke="#fba241"></path><path d="M607 246.3L577 247.3L574 270Z" fill="#fdb95e" stroke="#fdb95e"></path><path d="M429 471.4L439 397.6L427 396.7Z" fill="#f7770f" stroke="#f7770f"></path><path d="M429 471.4L452 467.6L439 397.6Z" fill="#f9922e" stroke="#f9922e"></path><path d="M513 409.6L554 420.7L563 396.6Z" fill="#fba241" stroke="#fba241"></path><path d="M294 353.9L358 352.7L320 338Z" fill="#f98924" stroke="#f98924"></path><path d="M605 321L574 270L576 313Z" fill="#f7770f" stroke="#f7770f"></path><path d="M574 270L577 247.3L556 276.1Z" fill="#ffc773" stroke="#ffc773"></path><path d="M514 212.3L555 179.3L473 176.4Z" fill="#f98924" stroke="#f98924"></path><path d="M534 459.4L554 420.7L513 409.6Z" fill="#fdb95e" stroke="#fdb95e"></path><path d="M563 396.6L595 381.9L587 355.7Z" fill="#ffc773" stroke="#ffc773"></path><path d="M299 308.9L294 353.9L306 329Z" fill="#f98924" stroke="#f98924"></path><path d="M306 329L294 353.9L320 338Z" fill="#fcb154" stroke="#fcb154"></path><path d="M577 247.3L576 243.1L556 276.1Z" fill="#fdb95e" stroke="#fdb95e"></path><path d="M389 154.6L383 176.4L435 188.4Z" fill="#fba241" stroke="#fba241"></path><path d="M370 198.3L303 238.3L375 250.3Z" fill="#fba241" stroke="#fba241"></path><path d="M576 243.1L545 203.4L532 272.1Z" fill="#fec069" stroke="#fec069"></path><path d="M429 472.4L429 471.4L346 475.4Z" fill="#fcaa4b" stroke="#fcaa4b"></path><path d="M341 451.4L427 396.7L378 382.7Z" fill="#f98924" stroke="#f98924"></path><path d="M429 471.4L429 472.4L452 467.6Z" fill="#fec069" stroke="#fec069"></path><path d="M299 197.3L303 238.3L370 198.3Z" fill="#fa9a37" stroke="#fa9a37"></path><path d="M299 308.9L253 289L294 353.9Z" fill="#ffc773" stroke="#ffc773"></path><path d="M637 353.7L605 321L587 355.7Z" fill="#f9922e" stroke="#f9922e"></path><path d="M587 355.7L605 321L571 317.9Z" fill="#fcaa4b" stroke="#fcaa4b"></path><path d="M577 247.3L607 246.3L576 243.1Z" fill="#fba241" stroke="#fba241"></path><path d="M522 477.3L501 469.4L525 532.1Z" fill="#ffc773" stroke="#ffc773"></path><path d="M452 467.6L501 469.4L513 409.6Z" fill="#f8801a" stroke="#f8801a"></path><path d="M303 238.3L295 247.1L376 265.1Z" fill="#fcb154" stroke="#fcb154"></path><path d="M594 433.4L595 381.9L563 396.6Z" fill="#f98924" stroke="#f98924"></path><path d="M283 396.7L341 451.4L378 382.7Z" fill="#f9922e" stroke="#f9922e"></path><path d="M533 460.6L534 459.4L513 409.6Z" fill="#fa9a37" stroke="#fa9a37"></path><path d="M554 420.7L594 433.4L563 396.6Z" fill="#f8801a" stroke="#f8801a"></path><path d="M501 469.4L533 460.6L513 409.6Z" fill="#f98924" stroke="#f98924"></path><path d="M473 97.6L389 154.6L435 188.4Z" fill="#f9922e" stroke="#f9922e"></path><path d="M383 176.4L341 163.4L370 198.3Z" fill="#fcb154" stroke="#fcb154"></path><path d="M389 154.6L378 155.4L383 176.4Z" fill="#f8801a" stroke="#f8801a"></path><path d="M262 383.7L283 396.7L294 353.9Z" fill="#fba241" stroke="#fba241"></path><path d="M294 353.9L283 396.7L358 352.7Z" fill="#f8801a" stroke="#f8801a"></path><path d="M573 169.4L555 179.3L545 203.4Z" fill="#fba241" stroke="#fba241"></path><path d="M545 203.4L555 179.3L514 212.3Z" fill="#f98924" stroke="#f98924"></path><path d="M473 97.6L385 143.6L389 154.6Z" fill="#fba241" stroke="#fba241"></path><path d="M573 169.4L545 203.4L576 243.1Z" fill="#ffc773" stroke="#ffc773"></path><path d="M487 545.1L501 469.4L452 467.6Z" fill="#f7770f" stroke="#f7770f"></path><path d="M501 469.4L522 477.3L533 460.6Z" fill="#f98924" stroke="#f98924"></path><path d="M556 479.3L554 420.7L534 459.4Z" fill="#ffc773" stroke="#ffc773"></path><path d="M598 451.4L594 433.4L554 420.7Z" fill="#fcaa4b" stroke="#fcaa4b"></path><path d="M646 284L607 246.3L574 270Z" fill="#fcb154" stroke="#fcb154"></path><path d="M312 456.6L336 465.6L341 451.4Z" fill="#fcaa4b" stroke="#fcaa4b"></path><path d="M341 451.4L346 475.4L429 471.4Z" fill="#fa9a37" stroke="#fa9a37"></path><path d="M473 97.6L435 188.4L473 176.4Z" fill="#fa9a37" stroke="#fa9a37"></path><path d="M389 154.6L385 143.6L378 155.4Z" fill="#f9922e" stroke="#f9922e"></path><path d="M378 155.4L341 163.4L383 176.4Z" fill="#f8801a" stroke="#f8801a"></path><path d="M303 238.3L299 197.3L295 247.1Z" fill="#ffc773" stroke="#ffc773"></path><path d="M385 143.6L341 163.4L378 155.4Z" fill="#fcb154" stroke="#fcb154"></path><path d="M336 465.6L346 475.4L341 451.4Z" fill="#fec069" stroke="#fec069"></path><path d="M429 472.4L427 522.3L452 467.6Z" fill="#fcaa4b" stroke="#fcaa4b"></path><path d="M341 163.4L299 197.3L370 198.3Z" fill="#f7770f" stroke="#f7770f"></path><path d="M321 107.7L335 162.6L341 163.4Z" fill="#fa9a37" stroke="#fa9a37"></path><path d="M341 163.4L335 162.6L299 197.3Z" fill="#ffc773" stroke="#ffc773"></path><path d="M283 396.7L312 456.6L341 451.4Z" fill="#fdb95e" stroke="#fdb95e"></path><path d="M324 502.3L344 505.3L346 475.4Z" fill="#f8801a" stroke="#f8801a"></path><path d="M556 479.3L534 459.4L533 460.6Z" fill="#fdb95e" stroke="#fdb95e"></path><path d="M595 381.9L637 353.7L587 355.7Z" fill="#f98924" stroke="#f98924"></path><path d="M247 272.1L253 289L295 247.1Z" fill="#f9922e" stroke="#f9922e"></path><path d="M295 247.1L253 289L299 308.9Z" fill="#f7770f" stroke="#f7770f"></path><path d="M213 362.9L262 383.7L294 353.9Z" fill="#f8801a" stroke="#f8801a"></path><path d="M255 476.4L295 496.4L312 456.6Z" fill="#fec069" stroke="#fec069"></path><path d="M607 246.3L573 169.4L576 243.1Z" fill="#f7770f" stroke="#f7770f"></path><path d="M555 179.3L493 121.6L473 176.4Z" fill="#fa9a37" stroke="#fa9a37"></path><path d="M525 532.1L556 479.3L522 477.3Z" fill="#fba241" stroke="#fba241"></path><path d="M522 477.3L556 479.3L533 460.6Z" fill="#ffc773" stroke="#ffc773"></path><path d="M640 396.6L637 353.7L595 381.9Z" fill="#fa9a37" stroke="#fa9a37"></path><path d="M605 321L646 284L574 270Z" fill="#f98924" stroke="#f98924"></path><path d="M207 244.3L247 272.1L295 247.1Z" fill="#fdb95e" stroke="#fdb95e"></path><path d="M253 289L213 362.9L294 353.9Z" fill="#f9922e" stroke="#f9922e"></path><path d="M553 107.7L493 121.6L555 179.3Z" fill="#f98924" stroke="#f98924"></path><path d="M207 244.3L244 273.1L247 272.1Z" fill="#ffc773" stroke="#ffc773"></path><path d="M247 272.1L244 273.1L253 289Z" fill="#f7770f" stroke="#f7770f"></path><path d="M556 479.3L598 451.4L554 420.7Z" fill="#fcb154" stroke="#fcb154"></path><path d="M594 433.4L640 396.6L595 381.9Z" fill="#fba241" stroke="#fba241"></path><path d="M388 518.3L429 472.4L346 475.4Z" fill="#f8801a" stroke="#f8801a"></path><path d="M398 523.1L427 522.3L429 472.4Z" fill="#fdb95e" stroke="#fdb95e"></path><path d="M637 353.7L646 284L605 321Z" fill="#fdb95e" stroke="#fdb95e"></path><path d="M607 246.3L637 241.1L573 169.4Z" fill="#f98924" stroke="#f98924"></path><path d="M344 505.3L388 518.3L346 475.4Z" fill="#f9922e" stroke="#f9922e"></path><path d="M646 284L637 241.1L607 246.3Z" fill="#f9922e" stroke="#f9922e"></path><path d="M388 518.3L398 523.1L429 472.4Z" fill="#fcaa4b" stroke="#fcaa4b"></path><path d="M324 502.3L336 465.6L312 456.6Z" fill="#f8801a" stroke="#f8801a"></path><path d="M324 502.3L346 475.4L336 465.6Z" fill="#fba241" stroke="#fba241"></path><path d="M388 518.3L377 569.1L398 523.1Z" fill="#ffc773" stroke="#ffc773"></path><path d="M641 430.6L640 396.6L594 433.4Z" fill="#fa9a37" stroke="#fa9a37"></path><path d="M637 353.7L673 346.9L646 284Z" fill="#f9922e" stroke="#f9922e"></path><path d="M295 496.4L324 502.3L312 456.6Z" fill="#fa9a37" stroke="#fa9a37"></path><path d="M377 569.1L427 522.3L398 523.1Z" fill="#fba241" stroke="#fba241"></path><path d="M475 85.7L473 97.6L493 121.6Z" fill="#fba241" stroke="#fba241"></path><path d="M493 121.6L473 97.6L473 176.4Z" fill="#fcb154" stroke="#fcb154"></path><path d="M385 143.6L321 107.7L341 163.4Z" fill="#fec069" stroke="#fec069"></path><path d="M637 241.1L589 149.6L573 169.4Z" fill="#fcb154" stroke="#fcb154"></path><path d="M573 169.4L553 107.7L555 179.3Z" fill="#fcb154" stroke="#fcb154"></path><path d="M598 451.4L641 430.6L594 433.4Z" fill="#fa9a37" stroke="#fa9a37"></path><path d="M686 360.7L673 346.9L637 353.7Z" fill="#fcaa4b" stroke="#fcaa4b"></path><path d="M641 506.3L641 430.6L598 451.4Z" fill="#fcaa4b" stroke="#fcaa4b"></path><path d="M487 545.1L452 467.6L427 522.3Z" fill="#f7770f" stroke="#f7770f"></path><path d="M487 545.1L525 532.1L501 469.4Z" fill="#f8801a" stroke="#f8801a"></path><path d="M606 537.3L641 506.3L598 451.4Z" fill="#f9922e" stroke="#f9922e"></path><path d="M255 476.4L312 456.6L283 396.7Z" fill="#fcb154" stroke="#fcb154"></path><path d="M377 569.1L388 518.3L344 563.1Z" fill="#fdb95e" stroke="#fdb95e"></path><path d="M461 569.1L487 545.1L427 522.3Z" fill="#fdb95e" stroke="#fdb95e"></path><path d="M686 360.7L637 353.7L640 396.6Z" fill="#f98924" stroke="#f98924"></path><path d="M646 284L691 244.3L637 241.1Z" fill="#f7770f" stroke="#f7770f"></path><path d="M499 59.7L475 85.7L493 121.6Z" fill="#f98924" stroke="#f98924"></path><path d="M473 97.6L428 70.9L385 143.6Z" fill="#fec069" stroke="#fec069"></path><path d="M178 352.9L213 362.9L253 289Z" fill="#fba241" stroke="#fba241"></path><path d="M230 457.6L255 476.4L283 396.7Z" fill="#fec069" stroke="#fec069"></path><path d="M589 149.6L553 107.7L573 169.4Z" fill="#fba241" stroke="#fba241"></path><path d="M651 107.7L594 131.4L589 149.6Z" fill="#f8801a" stroke="#f8801a"></path><path d="M589 149.6L561 105.7L553 107.7Z" fill="#fba241" stroke="#fba241"></path><path d="M242 145.4L241 161.6L299 197.3Z" fill="#f98924" stroke="#f98924"></path><path d="M299 197.3L207 244.3L295 247.1Z" fill="#f9922e" stroke="#f9922e"></path><path d="M362 79.9L321 107.7L385 143.6Z" fill="#fa9a37" stroke="#fa9a37"></path><path d="M321 107.7L317 109.7L335 162.6Z" fill="#fa9a37" stroke="#fa9a37"></path><path d="M594 131.4L561 105.7L589 149.6Z" fill="#f98924" stroke="#f98924"></path><path d="M553 107.7L499 59.7L493 121.6Z" fill="#f8801a" stroke="#f8801a"></path><path d="M230 457.6L283 396.7L262 383.7Z" fill="#fcb154" stroke="#fcb154"></path><path d="M241 161.6L207 244.3L299 197.3Z" fill="#fba241" stroke="#fba241"></path><path d="M165 276.1L178 352.9L253 289Z" fill="#fba241" stroke="#fba241"></path><path d="M439 46.7L428 70.9L475 85.7Z" fill="#f98924" stroke="#f98924"></path><path d="M475 85.7L428 70.9L473 97.6Z" fill="#fba241" stroke="#fba241"></path><path d="M698 400.6L686 360.7L640 396.6Z" fill="#f9922e" stroke="#f9922e"></path><path d="M704 250.3L691 244.3L646 284Z" fill="#f9922e" stroke="#f9922e"></path><path d="M637 241.1L692 174.4L589 149.6Z" fill="#f7770f" stroke="#f7770f"></path><path d="M428 70.9L362 79.9L385 143.6Z" fill="#fa9a37" stroke="#fa9a37"></path><path d="M321 107.7L268 91.7L317 109.7Z" fill="#f98924" stroke="#f98924"></path><path d="M388 518.3L344 505.3L344 563.1Z" fill="#fdb95e" stroke="#fdb95e"></path><path d="M409 600L461 569.1L427 522.3Z" fill="#ffc773" stroke="#ffc773"></path><path d="M529 600L576 569.1L525 532.1Z" fill="#ffc773" stroke="#ffc773"></path><path d="M594 131.4L571 99.6L561 105.7Z" fill="#fcb154" stroke="#fcb154"></path><path d="M561 105.7L571 99.6L553 107.7Z" fill="#f9922e" stroke="#f9922e"></path><path d="M208 424.7L230 457.6L262 383.7Z" fill="#f98924" stroke="#f98924"></path><path d="M242 145.4L299 197.3L335 162.6Z" fill="#fcb154" stroke="#fcb154"></path><path d="M213 362.9L208 424.7L262 383.7Z" fill="#f98924" stroke="#f98924"></path><path d="M167 392.7L208 424.7L213 362.9Z" fill="#f8801a" stroke="#f8801a"></path><path d="M704 250.3L646 284L727 307.9Z" fill="#f98924" stroke="#f98924"></path><path d="M594 131.4L613 92.7L571 99.6Z" fill="#fec069" stroke="#fec069"></path><path d="M284 558.1L324 502.3L295 496.4Z" fill="#f98924" stroke="#f98924"></path><path d="M344 563.1L344 505.3L324 502.3Z" fill="#f7770f" stroke="#f7770f"></path><path d="M269 516.3L295 496.4L255 476.4Z" fill="#fcaa4b" stroke="#fcaa4b"></path><path d="M241 161.6L196 185.3L207 244.3Z" fill="#ffc773" stroke="#ffc773"></path><path d="M242 145.4L235 155.4L241 161.6Z" fill="#f7770f" stroke="#f7770f"></path><path d="M242 145.4L335 162.6L317 109.7Z" fill="#fdb95e" stroke="#fdb95e"></path><path d="M571 99.6L499 59.7L553 107.7Z" fill="#fcaa4b" stroke="#fcaa4b"></path><path d="M428 70.9L381 10.9L362 79.9Z" fill="#fcb154" stroke="#fcb154"></path><path d="M269 516.3L255 476.4L244 524.1Z" fill="#fba241" stroke="#fba241"></path><path d="M262 524.3L269 516.3L244 524.1Z" fill="#fcb154" stroke="#fcb154"></path><path d="M268 91.7L242 145.4L317 109.7Z" fill="#fba241" stroke="#fba241"></path><path d="M284 558.1L344 563.1L324 502.3Z" fill="#f98924" stroke="#f98924"></path><path d="M165 276.1L253 289L244 273.1Z" fill="#ffc773" stroke="#ffc773"></path><path d="M686 481.3L698 400.6L641 430.6Z" fill="#f7770f" stroke="#f7770f"></path><path d="M641 430.6L698 400.6L640 396.6Z" fill="#f98924" stroke="#f98924"></path><path d="M727 307.9L646 284L673 346.9Z" fill="#fcb154" stroke="#fcb154"></path><path d="M722 356.7L673 346.9L686 360.7Z" fill="#ffc773" stroke="#ffc773"></path><path d="M691 244.3L696 220.1L637 241.1Z" fill="#f9922e" stroke="#f9922e"></path><path d="M468 30.9L439 46.7L475 85.7Z" fill="#f8801a" stroke="#f8801a"></path><path d="M704 250.3L696 220.1L691 244.3Z" fill="#f9922e" stroke="#f9922e"></path><path d="M606 537.3L556 479.3L525 532.1Z" fill="#fcb154" stroke="#fcb154"></path><path d="M606 537.3L598 451.4L556 479.3Z" fill="#f98924" stroke="#f98924"></path><path d="M576 569.1L606 537.3L525 532.1Z" fill="#f98924" stroke="#f98924"></path><path d="M196 474.4L255 476.4L230 457.6Z" fill="#fba241" stroke="#fba241"></path><path d="M269 516.3L284 558.1L295 496.4Z" fill="#ffc773" stroke="#ffc773"></path><path d="M235 155.4L196 185.3L241 161.6Z" fill="#fdb95e" stroke="#fdb95e"></path><path d="M207 244.3L165 276.1L244 273.1Z" fill="#fa9a37" stroke="#fa9a37"></path><path d="M159 137.4L196 185.3L235 155.4Z" fill="#fec069" stroke="#fec069"></path><path d="M166 199.3L165 276.1L207 244.3Z" fill="#f8801a" stroke="#f8801a"></path><path d="M651 107.7L613 92.7L594 131.4Z" fill="#fcaa4b" stroke="#fcaa4b"></path><path d="M571 99.6L596 76.9L499 59.7Z" fill="#fcaa4b" stroke="#fcaa4b"></path><path d="M785 386.7L722 356.7L698 400.6Z" fill="#fba241" stroke="#fba241"></path><path d="M698 400.6L722 356.7L686 360.7Z" fill="#f98924" stroke="#f98924"></path><path d="M160 444.6L201 464.6L208 424.7Z" fill="#f9922e" stroke="#f9922e"></path><path d="M208 424.7L201 464.6L230 457.6Z" fill="#fdb95e" stroke="#fdb95e"></path><path d="M409 600L463 600L461 569.1Z" fill="#fa9a37" stroke="#fa9a37"></path><path d="M461 569.1L524 600L487 545.1Z" fill="#f9922e" stroke="#f9922e"></path><path d="M409 600L427 522.3L377 569.1Z" fill="#fba241" stroke="#fba241"></path><path d="M375 600L409 600L377 569.1Z" fill="#fec069" stroke="#fec069"></path><path d="M375 600L377 569.1L349 600Z" fill="#fcb154" stroke="#fcb154"></path><path d="M722 356.7L727 307.9L673 346.9Z" fill="#fba241" stroke="#fba241"></path><path d="M699 186.4L692 174.4L696 220.1Z" fill="#fa9a37" stroke="#fa9a37"></path><path d="M269 48.9L268 91.7L321 107.7Z" fill="#fdb95e" stroke="#fdb95e"></path><path d="M242 145.4L216 111.7L235 155.4Z" fill="#fdb95e" stroke="#fdb95e"></path><path d="M269 48.9L321 107.7L362 79.9Z" fill="#fec069" stroke="#fec069"></path><path d="M683 507.4L686 481.3L641 506.3Z" fill="#fdb95e" stroke="#fdb95e"></path><path d="M524 600L525 532.1L487 545.1Z" fill="#fba241" stroke="#fba241"></path><path d="M613 92.7L596 76.9L571 99.6Z" fill="#fdb95e" stroke="#fdb95e"></path><path d="M499 59.7L468 30.9L475 85.7Z" fill="#fcaa4b" stroke="#fcaa4b"></path><path d="M125 341.9L167 392.7L178 352.9Z" fill="#ffc773" stroke="#ffc773"></path><path d="M178 352.9L167 392.7L213 362.9Z" fill="#fba241" stroke="#fba241"></path><path d="M196 474.4L244 524.1L255 476.4Z" fill="#fdb95e" stroke="#fdb95e"></path><path d="M262 524.3L284 558.1L269 516.3Z" fill="#ffc773" stroke="#ffc773"></path><path d="M502 12.9L468 30.9L499 59.7Z" fill="#f8801a" stroke="#f8801a"></path><path d="M439 46.7L381 10.9L428 70.9Z" fill="#fcb154" stroke="#fcb154"></path><path d="M699 186.4L696 220.1L742 217.1Z" fill="#f98924" stroke="#f98924"></path><path d="M696 220.1L692 174.4L637 241.1Z" fill="#fa9a37" stroke="#fa9a37"></path><path d="M720 240.1L696 220.1L704 250.3Z" fill="#f8801a" stroke="#f8801a"></path><path d="M732 262L720 240.1L704 250.3Z" fill="#fba241" stroke="#fba241"></path><path d="M244 524.1L284 558.1L262 524.3Z" fill="#fba241" stroke="#fba241"></path><path d="M349 600L377 569.1L344 563.1Z" fill="#fdb95e" stroke="#fdb95e"></path><path d="M160 444.6L196 474.4L201 464.6Z" fill="#ffc773" stroke="#ffc773"></path><path d="M201 464.6L196 474.4L230 457.6Z" fill="#fcaa4b" stroke="#fcaa4b"></path><path d="M683 507.4L641 506.3L678 576.1Z" fill="#fba241" stroke="#fba241"></path><path d="M641 506.3L686 481.3L641 430.6Z" fill="#ffc773" stroke="#ffc773"></path><path d="M463 600L524 600L461 569.1Z" fill="#f7770f" stroke="#f7770f"></path><path d="M740 268L732 262L727 307.9Z" fill="#f8801a" stroke="#f8801a"></path><path d="M727 307.9L732 262L704 250.3Z" fill="#fcb154" stroke="#fcb154"></path><path d="M720 240.1L742 217.1L696 220.1Z" fill="#ffc773" stroke="#ffc773"></path><path d="M613 92.7L613 25.9L596 76.9Z" fill="#fba241" stroke="#fba241"></path><path d="M688 147.6L651 107.7L589 149.6Z" fill="#fba241" stroke="#fba241"></path><path d="M524 600L529 600L525 532.1Z" fill="#ffc773" stroke="#ffc773"></path><path d="M269 48.9L247 93.6L268 91.7Z" fill="#fcb154" stroke="#fcb154"></path><path d="M268 91.7L247 93.6L242 145.4Z" fill="#f98924" stroke="#f98924"></path><path d="M284 558.1L349 600L344 563.1Z" fill="#fec069" stroke="#fec069"></path><path d="M729 143.4L688 147.6L692 174.4Z" fill="#fec069" stroke="#fec069"></path><path d="M692 174.4L688 147.6L589 149.6Z" fill="#fba241" stroke="#fba241"></path><path d="M707 111.6L688 147.6L729 143.4Z" fill="#fa9a37" stroke="#fa9a37"></path><path d="M690 47.9L644 94.6L651 107.7Z" fill="#fdb95e" stroke="#fdb95e"></path><path d="M651 107.7L644 94.6L613 92.7Z" fill="#fba241" stroke="#fba241"></path><path d="M158 192.4L166 199.3L196 185.3Z" fill="#fec069" stroke="#fec069"></path><path d="M196 185.3L166 199.3L207 244.3Z" fill="#fec069" stroke="#fec069"></path><path d="M777 311.9L740 268L727 307.9Z" fill="#f8801a" stroke="#f8801a"></path><path d="M732 262L742 217.1L720 240.1Z" fill="#f98924" stroke="#f98924"></path><path d="M99 293.1L141 294L106 225.3Z" fill="#ffc773" stroke="#ffc773"></path><path d="M165 276.1L141 294L178 352.9Z" fill="#fdb95e" stroke="#fdb95e"></path><path d="M167 392.7L158 424.7L208 424.7Z" fill="#f7770f" stroke="#f7770f"></path><path d="M151 434.6L158 424.7L149 435.4Z" fill="#fba241" stroke="#fba241"></path><path d="M247 93.6L216 111.7L242 145.4Z" fill="#f9922e" stroke="#f9922e"></path><path d="M678 576.1L641 506.3L606 537.3Z" fill="#f8801a" stroke="#f8801a"></path><path d="M686 481.3L727 438.4L698 400.6Z" fill="#f8801a" stroke="#f8801a"></path><path d="M606 595.1L606 537.3L576 569.1Z" fill="#f8801a" stroke="#f8801a"></path><path d="M716 505.3L727 438.4L686 481.3Z" fill="#fba241" stroke="#fba241"></path><path d="M722 356.7L777 311.9L727 307.9Z" fill="#fdb95e" stroke="#fdb95e"></path><path d="M151 434.6L160 444.6L158 424.7Z" fill="#fcb154" stroke="#fcb154"></path><path d="M158 424.7L160 444.6L208 424.7Z" fill="#fdb95e" stroke="#fdb95e"></path><path d="M247 600L284 558.1L244 524.1Z" fill="#fa9a37" stroke="#fa9a37"></path><path d="M515 0L499 59.7L572 0Z" fill="#ffc773" stroke="#ffc773"></path><path d="M515 0L502 12.9L499 59.7Z" fill="#fba241" stroke="#fba241"></path><path d="M410 0L381 10.9L439 46.7Z" fill="#fba241" stroke="#fba241"></path><path d="M159 137.4L158 192.4L196 185.3Z" fill="#fa9a37" stroke="#fa9a37"></path><path d="M166 199.3L106 225.3L165 276.1Z" fill="#fec069" stroke="#fec069"></path><path d="M410 0L439 46.7L468 30.9Z" fill="#fdb95e" stroke="#fdb95e"></path><path d="M247 93.6L194 98.7L216 111.7Z" fill="#fcaa4b" stroke="#fcaa4b"></path><path d="M149 435.4L158 424.7L94 408.7Z" fill="#fba241" stroke="#fba241"></path><path d="M740 268L742 217.1L732 262Z" fill="#f9922e" stroke="#f9922e"></path><path d="M94 408.7L158 424.7L167 392.7Z" fill="#f9922e" stroke="#f9922e"></path><path d="M151 434.6L149 435.4L160 444.6Z" fill="#f9922e" stroke="#f9922e"></path><path d="M247 600L244 524.1L201 600Z" fill="#fec069" stroke="#fec069"></path><path d="M115 351.9L125 341.9L109 322Z" fill="#fba241" stroke="#fba241"></path><path d="M141 294L125 341.9L178 352.9Z" fill="#fcaa4b" stroke="#fcaa4b"></path><path d="M484 0L410 0L468 30.9Z" fill="#f98924" stroke="#f98924"></path><path d="M325 0L269 48.9L362 79.9Z" fill="#fa9a37" stroke="#fa9a37"></path><path d="M330 0L362 79.9L381 10.9Z" fill="#fcb154" stroke="#fcb154"></path><path d="M515 0L484 0L502 12.9Z" fill="#fec069" stroke="#fec069"></path><path d="M502 12.9L484 0L468 30.9Z" fill="#fdb95e" stroke="#fdb95e"></path><path d="M598 600L606 595.1L576 569.1Z" fill="#fba241" stroke="#fba241"></path><path d="M529 600L598 600L576 569.1Z" fill="#fec069" stroke="#fec069"></path><path d="M572 0L499 59.7L596 76.9Z" fill="#fcb154" stroke="#fcb154"></path><path d="M109 322L125 341.9L141 294Z" fill="#fba241" stroke="#fba241"></path><path d="M125 341.9L115 351.9L167 392.7Z" fill="#fec069" stroke="#fec069"></path><path d="M192 8.9L194 98.7L247 93.6Z" fill="#f7770f" stroke="#f7770f"></path><path d="M216 111.7L159 137.4L235 155.4Z" fill="#fcb154" stroke="#fcb154"></path><path d="M678 576.1L716 505.3L683 507.4Z" fill="#fa9a37" stroke="#fa9a37"></path><path d="M683 507.4L716 505.3L686 481.3Z" fill="#f9922e" stroke="#f9922e"></path><path d="M99 293.1L109 322L141 294Z" fill="#fba241" stroke="#fba241"></path><path d="M799 347.9L777 311.9L722 356.7Z" fill="#f7770f" stroke="#f7770f"></path><path d="M772 201.4L758 204.3L742 217.1Z" fill="#fcb154" stroke="#fcb154"></path><path d="M785 386.7L698 400.6L727 438.4Z" fill="#ffc773" stroke="#ffc773"></path><path d="M729 143.4L699 186.4L758 204.3Z" fill="#fcaa4b" stroke="#fcaa4b"></path><path d="M729 143.4L692 174.4L699 186.4Z" fill="#fcaa4b" stroke="#fcaa4b"></path><path d="M688 147.6L707 111.6L651 107.7Z" fill="#ffc773" stroke="#ffc773"></path><path d="M644 94.6L613 25.9L613 92.7Z" fill="#f8801a" stroke="#f8801a"></path><path d="M758 204.3L699 186.4L742 217.1Z" fill="#f9922e" stroke="#f9922e"></path><path d="M772 201.4L742 217.1L740 268Z" fill="#f7770f" stroke="#f7770f"></path><path d="M194 98.7L159 137.4L216 111.7Z" fill="#f8801a" stroke="#f8801a"></path><path d="M106 225.3L141 294L165 276.1Z" fill="#f7770f" stroke="#f7770f"></path><path d="M410 0L330 0L381 10.9Z" fill="#fec069" stroke="#fec069"></path><path d="M155 9.9L171 103.6L194 98.7Z" fill="#f9922e" stroke="#f9922e"></path><path d="M690 47.9L613 25.9L644 94.6Z" fill="#f9922e" stroke="#f9922e"></path><path d="M330 0L325 0L362 79.9Z" fill="#fdb95e" stroke="#fdb95e"></path><path d="M247 600L254 600L284 558.1Z" fill="#f8801a" stroke="#f8801a"></path><path d="M284 558.1L254 600L349 600Z" fill="#f7770f" stroke="#f7770f"></path><path d="M244 524.1L196 474.4L174 535.3Z" fill="#fa9a37" stroke="#fa9a37"></path><path d="M613 25.9L572 0L596 76.9Z" fill="#fa9a37" stroke="#fa9a37"></path><path d="M174 535.3L196 474.4L103 491.3Z" fill="#fec069" stroke="#fec069"></path><path d="M598 600L638 600L606 595.1Z" fill="#fec069" stroke="#fec069"></path><path d="M606 595.1L638 600L606 537.3Z" fill="#f9922e" stroke="#f9922e"></path><path d="M106 225.3L166 199.3L158 192.4Z" fill="#fec069" stroke="#fec069"></path><path d="M50 388.6L94 408.7L115 351.9Z" fill="#fec069" stroke="#fec069"></path><path d="M194 98.7L171 103.6L159 137.4Z" fill="#f98924" stroke="#f98924"></path><path d="M97 217.1L106 225.3L158 192.4Z" fill="#f8801a" stroke="#f8801a"></path><path d="M210 2.9L247 93.6L269 48.9Z" fill="#fa9a37" stroke="#fa9a37"></path><path d="M103 491.3L196 474.4L160 444.6Z" fill="#fa9a37" stroke="#fa9a37"></path><path d="M103 491.3L160 444.6L149 435.4Z" fill="#f7770f" stroke="#f7770f"></path><path d="M638 600L678 576.1L606 537.3Z" fill="#ffc773" stroke="#ffc773"></path><path d="M97 217.1L158 192.4L86 177.4Z" fill="#fcb154" stroke="#fcb154"></path><path d="M748 50.9L690 47.9L707 111.6Z" fill="#fdb95e" stroke="#fdb95e"></path><path d="M758 204.3L772 201.4L729 143.4Z" fill="#ffc773" stroke="#ffc773"></path><path d="M818 227.1L772 201.4L740 268Z" fill="#fcaa4b" stroke="#fcaa4b"></path><path d="M803 401.6L785 386.7L727 438.4Z" fill="#fec069" stroke="#fec069"></path><path d="M777 311.9L818 227.1L740 268Z" fill="#f98924" stroke="#f98924"></path><path d="M646 600L678 576.1L638 600Z" fill="#fcaa4b" stroke="#fcaa4b"></path><path d="M825 451.6L803 401.6L727 438.4Z" fill="#ffc773" stroke="#ffc773"></path><path d="M174 535.3L181 550.1L244 524.1Z" fill="#fcaa4b" stroke="#fcaa4b"></path><path d="M325 0L281 3.9L269 48.9Z" fill="#ffc773" stroke="#ffc773"></path><path d="M325 0L285 0L281 3.9Z" fill="#fa9a37" stroke="#fa9a37"></path><path d="M112 102.7L159 137.4L171 103.6Z" fill="#fcaa4b" stroke="#fcaa4b"></path><path d="M785 386.7L799 347.9L722 356.7Z" fill="#fba241" stroke="#fba241"></path><path d="M86 177.4L158 192.4L91 148.6Z" fill="#f7770f" stroke="#f7770f"></path><path d="M106 225.3L75 270.1L99 293.1Z" fill="#fec069" stroke="#fec069"></path><path d="M65 334L115 351.9L109 322Z" fill="#ffc773" stroke="#ffc773"></path><path d="M115 351.9L94 408.7L167 392.7Z" fill="#fcaa4b" stroke="#fcaa4b"></path><path d="M174 535.3L166 565.1L181 550.1Z" fill="#f9922e" stroke="#f9922e"></path><path d="M65 334L109 322L99 293.1Z" fill="#fdb95e" stroke="#fdb95e"></path><path d="M707 111.6L690 47.9L651 107.7Z" fill="#fba241" stroke="#fba241"></path><path d="M613 25.9L658 0L572 0Z" fill="#f8801a" stroke="#f8801a"></path><path d="M757 109.6L707 111.6L729 143.4Z" fill="#f98924" stroke="#f98924"></path><path d="M754 520.1L727 438.4L716 505.3Z" fill="#f98924" stroke="#f98924"></path><path d="M785 386.7L815 375.7L799 347.9Z" fill="#fa9a37" stroke="#fa9a37"></path><path d="M57 250.3L75 270.1L106 225.3Z" fill="#ffc773" stroke="#ffc773"></path><path d="M83 535.1L166 565.1L174 535.3Z" fill="#f9922e" stroke="#f9922e"></path><path d="M181 550.1L201 600L244 524.1Z" fill="#fec069" stroke="#fec069"></path><path d="M166 565.1L201 600L181 550.1Z" fill="#fec069" stroke="#fec069"></path><path d="M803 401.6L806 394.7L785 386.7Z" fill="#fcaa4b" stroke="#fcaa4b"></path><path d="M788 510.3L754 520.1L790 571.1Z" fill="#ffc773" stroke="#ffc773"></path><path d="M678 576.1L754 520.1L716 505.3Z" fill="#f7770f" stroke="#f7770f"></path><path d="M846 439.4L815 375.7L806 394.7Z" fill="#fba241" stroke="#fba241"></path><path d="M756 94.7L757 109.6L780 97.6Z" fill="#ffc773" stroke="#ffc773"></path><path d="M810 180.3L757 109.6L729 143.4Z" fill="#fcaa4b" stroke="#fcaa4b"></path><path d="M806 394.7L815 375.7L785 386.7Z" fill="#fec069" stroke="#fec069"></path><path d="M838 307L818 227.1L777 311.9Z" fill="#f9922e" stroke="#f9922e"></path><path d="M846 439.4L806 394.7L803 401.6Z" fill="#fcaa4b" stroke="#fcaa4b"></path><path d="M75 270.1L65 334L99 293.1Z" fill="#fa9a37" stroke="#fa9a37"></path><path d="M93 485.4L149 435.4L73 463.6Z" fill="#fdb95e" stroke="#fdb95e"></path><path d="M93 485.4L103 491.3L149 435.4Z" fill="#f98924" stroke="#f98924"></path><path d="M91 148.6L158 192.4L159 137.4Z" fill="#fba241" stroke="#fba241"></path><path d="M97 217.1L57 250.3L106 225.3Z" fill="#fdb95e" stroke="#fdb95e"></path><path d="M75 270.1L0 301L65 334Z" fill="#fec069" stroke="#fec069"></path><path d="M91 148.6L159 137.4L110 104.6Z" fill="#fdb95e" stroke="#fdb95e"></path><path d="M683 0L658 0L690 47.9Z" fill="#ffc773" stroke="#ffc773"></path><path d="M690 47.9L658 0L613 25.9Z" fill="#fcaa4b" stroke="#fcaa4b"></path><path d="M810 180.3L729 143.4L772 201.4Z" fill="#fec069" stroke="#fec069"></path><path d="M757 109.6L756 94.7L707 111.6Z" fill="#fec069" stroke="#fec069"></path><path d="M830 315L777 311.9L799 347.9Z" fill="#ffc773" stroke="#ffc773"></path><path d="M815 375.7L830 315L799 347.9Z" fill="#f8801a" stroke="#f8801a"></path><path d="M73 463.6L149 435.4L94 408.7Z" fill="#f9922e" stroke="#f9922e"></path><path d="M103 491.3L83 535.1L174 535.3Z" fill="#f7770f" stroke="#f7770f"></path><path d="M210 2.9L269 48.9L281 3.9Z" fill="#ffc773" stroke="#ffc773"></path><path d="M285 0L210 2.9L281 3.9Z" fill="#fdb95e" stroke="#fdb95e"></path><path d="M55 185.4L97 217.1L86 177.4Z" fill="#ffc773" stroke="#ffc773"></path><path d="M55 185.4L57 250.3L97 217.1Z" fill="#fec069" stroke="#fec069"></path><path d="M818 227.1L810 180.3L772 201.4Z" fill="#ffc773" stroke="#ffc773"></path><path d="M97 60.7L112 102.7L171 103.6Z" fill="#fcaa4b" stroke="#fcaa4b"></path><path d="M97 60.7L110 104.6L112 102.7Z" fill="#fec069" stroke="#fec069"></path><path d="M112 102.7L110 104.6L159 137.4Z" fill="#fa9a37" stroke="#fa9a37"></path><path d="M830 315L838 307L777 311.9Z" fill="#fec069" stroke="#fec069"></path><path d="M818 227.1L886 193.3L810 180.3Z" fill="#f8801a" stroke="#f8801a"></path><path d="M879 338.9L838 307L830 315Z" fill="#f98924" stroke="#f98924"></path><path d="M746 600L754 520.1L678 576.1Z" fill="#fec069" stroke="#fec069"></path><path d="M754 520.1L788 510.3L727 438.4Z" fill="#fec069" stroke="#fec069"></path><path d="M815 375.7L879 338.9L830 315Z" fill="#f7770f" stroke="#f7770f"></path><path d="M210 2.9L192 8.9L247 93.6Z" fill="#fcb154" stroke="#fcb154"></path><path d="M36 439.4L73 463.6L94 408.7Z" fill="#fdb95e" stroke="#fdb95e"></path><path d="M50 388.6L115 351.9L65 334Z" fill="#fdb95e" stroke="#fdb95e"></path><path d="M704 0L683 0L690 47.9Z" fill="#fa9a37" stroke="#fa9a37"></path><path d="M43 386.7L50 388.6L36 371.9Z" fill="#fdb95e" stroke="#fdb95e"></path><path d="M788 510.3L803 492.4L727 438.4Z" fill="#f9922e" stroke="#f9922e"></path><path d="M810 180.3L780 97.6L757 109.6Z" fill="#fa9a37" stroke="#fa9a37"></path><path d="M756 94.7L748 50.9L707 111.6Z" fill="#f98924" stroke="#f98924"></path><path d="M36 371.9L50 388.6L65 334Z" fill="#f98924" stroke="#f98924"></path><path d="M50 388.6L36 439.4L94 408.7Z" fill="#f8801a" stroke="#f8801a"></path><path d="M285 0L190 0L210 2.9Z" fill="#f9922e" stroke="#f9922e"></path><path d="M210 2.9L190 0L192 8.9Z" fill="#fcaa4b" stroke="#fcaa4b"></path><path d="M192 8.9L155 9.9L194 98.7Z" fill="#fba241" stroke="#fba241"></path><path d="M771 78.7L748 50.9L756 94.7Z" fill="#fec069" stroke="#fec069"></path><path d="M803 492.4L825 451.6L727 438.4Z" fill="#f98924" stroke="#f98924"></path><path d="M780 97.6L771 78.7L756 94.7Z" fill="#f7770f" stroke="#f7770f"></path><path d="M65 108.6L55 185.4L91 148.6Z" fill="#f9922e" stroke="#f9922e"></path><path d="M91 148.6L55 185.4L86 177.4Z" fill="#f8801a" stroke="#f8801a"></path><path d="M0 346.7L36 371.9L65 334Z" fill="#fdb95e" stroke="#fdb95e"></path><path d="M17 262L75 270.1L57 250.3Z" fill="#f7770f" stroke="#f7770f"></path><path d="M19 499.3L80 527.3L73 463.6Z" fill="#f7770f" stroke="#f7770f"></path><path d="M748 50.9L704 0L690 47.9Z" fill="#fba241" stroke="#fba241"></path><path d="M646 600L746 600L678 576.1Z" fill="#fcaa4b" stroke="#fcaa4b"></path><path d="M788 510.3L816 521.3L803 492.4Z" fill="#fba241" stroke="#fba241"></path><path d="M803 492.4L835 458.6L825 451.6Z" fill="#f98924" stroke="#f98924"></path><path d="M849 478.4L835 458.6L803 492.4Z" fill="#ffc773" stroke="#ffc773"></path><path d="M825 451.6L846 439.4L803 401.6Z" fill="#fba241" stroke="#fba241"></path><path d="M36 439.4L50 388.6L43 386.7Z" fill="#fec069" stroke="#fec069"></path><path d="M73 463.6L80 527.3L93 485.4Z" fill="#fec069" stroke="#fec069"></path><path d="M93 485.4L80 527.3L103 491.3Z" fill="#f8801a" stroke="#f8801a"></path><path d="M166 565.1L122 600L201 600Z" fill="#fdb95e" stroke="#fdb95e"></path><path d="M80 527.3L83 535.1L103 491.3Z" fill="#ffc773" stroke="#ffc773"></path><path d="M190 0L155 9.9L192 8.9Z" fill="#fcb154" stroke="#fcb154"></path><path d="M110 104.6L65 108.6L91 148.6Z" fill="#f98924" stroke="#f98924"></path><path d="M835 458.6L846 439.4L825 451.6Z" fill="#ffc773" stroke="#ffc773"></path><path d="M826 66.7L785 69.7L780 97.6Z" fill="#fcaa4b" stroke="#fcaa4b"></path><path d="M780 97.6L785 69.7L771 78.7Z" fill="#fba241" stroke="#fba241"></path><path d="M771 78.7L784 49.9L748 50.9Z" fill="#fdb95e" stroke="#fdb95e"></path><path d="M748 50.9L743 0L704 0Z" fill="#f7770f" stroke="#f7770f"></path><path d="M746 600L770 592.1L754 520.1Z" fill="#fdb95e" stroke="#fdb95e"></path><path d="M835 458.6L849 478.4L846 439.4Z" fill="#fcb154" stroke="#fcb154"></path><path d="M0 419.6L36 439.4L43 386.7Z" fill="#f8801a" stroke="#f8801a"></path><path d="M80 527.3L83 555.1L83 535.1Z" fill="#f8801a" stroke="#f8801a"></path><path d="M790 571.1L816 521.3L788 510.3Z" fill="#fcaa4b" stroke="#fcaa4b"></path><path d="M83 555.1L122 600L166 565.1Z" fill="#f7770f" stroke="#f7770f"></path><path d="M757 600L770 592.1L746 600Z" fill="#fdb95e" stroke="#fdb95e"></path><path d="M190 0L155 0L155 9.9Z" fill="#fcaa4b" stroke="#fcaa4b"></path><path d="M106 36.9L97 60.7L171 103.6Z" fill="#fa9a37" stroke="#fa9a37"></path><path d="M0 226.1L17 262L57 250.3Z" fill="#f7770f" stroke="#f7770f"></path><path d="M36 371.9L0 419.6L43 386.7Z" fill="#fba241" stroke="#fba241"></path><path d="M106 36.9L171 103.6L155 9.9Z" fill="#fdb95e" stroke="#fdb95e"></path><path d="M0 221.3L0 226.1L57 250.3Z" fill="#f8801a" stroke="#f8801a"></path><path d="M770 592.1L790 571.1L754 520.1Z" fill="#f7770f" stroke="#f7770f"></path><path d="M0 540.3L83 555.1L80 527.3Z" fill="#fcaa4b" stroke="#fcaa4b"></path><path d="M83 535.1L83 555.1L166 565.1Z" fill="#fba241" stroke="#fba241"></path><path d="M97 60.7L65 108.6L110 104.6Z" fill="#f7770f" stroke="#f7770f"></path><path d="M155 0L149 0L155 9.9Z" fill="#f7770f" stroke="#f7770f"></path><path d="M826 66.7L780 97.6L842 70.9Z" fill="#fdb95e" stroke="#fdb95e"></path><path d="M826 66.7L784 49.9L785 69.7Z" fill="#ffc773" stroke="#ffc773"></path><path d="M785 69.7L784 49.9L771 78.7Z" fill="#f7770f" stroke="#f7770f"></path><path d="M83 555.1L112 600L122 600Z" fill="#fec069" stroke="#fec069"></path><path d="M784 49.9L743 0L748 50.9Z" fill="#fcb154" stroke="#fcb154"></path><path d="M900 380.7L879 338.9L815 375.7Z" fill="#fec069" stroke="#fec069"></path><path d="M900 258.1L894 230.1L818 227.1Z" fill="#fcaa4b" stroke="#fcaa4b"></path><path d="M816 521.3L849 478.4L803 492.4Z" fill="#fcb154" stroke="#fcb154"></path><path d="M900 380.7L900 336.9L879 338.9Z" fill="#fcaa4b" stroke="#fcaa4b"></path><path d="M870 548.1L849 478.4L816 521.3Z" fill="#fec069" stroke="#fec069"></path><path d="M149 0L106 36.9L155 9.9Z" fill="#fcb154" stroke="#fcb154"></path><path d="M0 114.7L15 123.7L0 100.6Z" fill="#fdb95e" stroke="#fdb95e"></path><path d="M0 226.1L0 301L17 262Z" fill="#fa9a37" stroke="#fa9a37"></path><path d="M17 262L0 301L75 270.1Z" fill="#fa9a37" stroke="#fa9a37"></path><path d="M0 301L0 346.7L65 334Z" fill="#fba241" stroke="#fba241"></path><path d="M0 346.7L0 347.9L36 371.9Z" fill="#fba241" stroke="#fba241"></path><path d="M0 221.3L57 250.3L55 185.4Z" fill="#fdb95e" stroke="#fdb95e"></path><path d="M0 180.4L0 221.3L55 185.4Z" fill="#fa9a37" stroke="#fa9a37"></path><path d="M0 180.4L55 185.4L15 123.7Z" fill="#fec069" stroke="#fec069"></path><path d="M0 347.9L0 419.6L36 371.9Z" fill="#fcaa4b" stroke="#fcaa4b"></path><path d="M36 439.4L19 499.3L73 463.6Z" fill="#fcb154" stroke="#fcb154"></path><path d="M900 336.9L900 313L879 338.9Z" fill="#fba241" stroke="#fba241"></path><path d="M879 338.9L900 313L838 307Z" fill="#fdb95e" stroke="#fdb95e"></path><path d="M900 380.7L815 375.7L846 439.4Z" fill="#fba241" stroke="#fba241"></path><path d="M842 70.9L780 97.6L883 126.6Z" fill="#fec069" stroke="#fec069"></path><path d="M784 49.9L833 0L743 0Z" fill="#f8801a" stroke="#f8801a"></path><path d="M900 258.1L818 227.1L838 307Z" fill="#f8801a" stroke="#f8801a"></path><path d="M894 230.1L886 193.3L818 227.1Z" fill="#f9922e" stroke="#f9922e"></path><path d="M0 496.4L19 499.3L36 439.4Z" fill="#f8801a" stroke="#f8801a"></path><path d="M83 555.1L62 600L112 600Z" fill="#f9922e" stroke="#f9922e"></path><path d="M900 313L900 258.1L838 307Z" fill="#f8801a" stroke="#f8801a"></path><path d="M886 193.3L880 169.4L810 180.3Z" fill="#f7770f" stroke="#f7770f"></path><path d="M900 416.6L900 380.7L846 439.4Z" fill="#fba241" stroke="#fba241"></path><path d="M15 123.7L55 185.4L65 108.6Z" fill="#f8801a" stroke="#f8801a"></path><path d="M894 230.1L900 196.4L886 193.3Z" fill="#fdb95e" stroke="#fdb95e"></path><path d="M886 193.3L900 196.4L880 169.4Z" fill="#f98924" stroke="#f98924"></path><path d="M900 258.1L900 243.3L894 230.1Z" fill="#fdb95e" stroke="#fdb95e"></path><path d="M149 0L99 0L106 36.9Z" fill="#f7770f" stroke="#f7770f"></path><path d="M106 36.9L66 33.9L97 60.7Z" fill="#fba241" stroke="#fba241"></path><path d="M790 571.1L831 600L816 521.3Z" fill="#fcb154" stroke="#fcb154"></path><path d="M900 487.4L900 416.6L846 439.4Z" fill="#fcb154" stroke="#fcb154"></path><path d="M770 592.1L815 600L790 571.1Z" fill="#f98924" stroke="#f98924"></path><path d="M757 600L815 600L770 592.1Z" fill="#fcb154" stroke="#fcb154"></path><path d="M900 487.4L846 439.4L849 478.4Z" fill="#f9922e" stroke="#f9922e"></path><path d="M66 33.9L65 108.6L97 60.7Z" fill="#f8801a" stroke="#f8801a"></path><path d="M883 126.6L780 97.6L810 180.3Z" fill="#f9922e" stroke="#f9922e"></path><path d="M826 66.7L836 25.9L784 49.9Z" fill="#f98924" stroke="#f98924"></path><path d="M99 0L66 33.9L106 36.9Z" fill="#f98924" stroke="#f98924"></path><path d="M900 243.3L900 196.4L894 230.1Z" fill="#fec069" stroke="#fec069"></path><path d="M880 169.4L883 126.6L810 180.3Z" fill="#f9922e" stroke="#f9922e"></path><path d="M0 561.1L62 600L83 555.1Z" fill="#fcaa4b" stroke="#fcaa4b"></path><path d="M0 419.6L0 496.4L36 439.4Z" fill="#ffc773" stroke="#ffc773"></path><path d="M19 499.3L0 540.3L80 527.3Z" fill="#f7770f" stroke="#f7770f"></path><path d="M900 138.6L883 126.6L880 169.4Z" fill="#fdb95e" stroke="#fdb95e"></path><path d="M815 600L831 600L790 571.1Z" fill="#fcb154" stroke="#fcb154"></path><path d="M831 600L870 548.1L816 521.3Z" fill="#ffc773" stroke="#ffc773"></path><path d="M0 100.6L15 123.7L65 108.6Z" fill="#f9922e" stroke="#f9922e"></path><path d="M15 123.7L0 114.7L0 180.4Z" fill="#f9922e" stroke="#f9922e"></path><path d="M890 520.3L900 487.4L849 478.4Z" fill="#f8801a" stroke="#f8801a"></path><path d="M846 0L836 25.9L900 0Z" fill="#f8801a" stroke="#f8801a"></path><path d="M842 70.9L836 25.9L826 66.7Z" fill="#f9922e" stroke="#f9922e"></path><path d="M99 0L69 0L66 33.9Z" fill="#f7770f" stroke="#f7770f"></path><path d="M66 33.9L0 100.6L65 108.6Z" fill="#fcb154" stroke="#fcb154"></path><path d="M900 196.4L900 138.6L880 169.4Z" fill="#fba241" stroke="#fba241"></path><path d="M900 79.9L836 25.9L842 70.9Z" fill="#f9922e" stroke="#f9922e"></path><path d="M870 548.1L890 520.3L849 478.4Z" fill="#ffc773" stroke="#ffc773"></path><path d="M0 8.9L0 100.6L66 33.9Z" fill="#f7770f" stroke="#f7770f"></path><path d="M0 496.4L0 540.3L19 499.3Z" fill="#f98924" stroke="#f98924"></path><path d="M836 25.9L833 0L784 49.9Z" fill="#f98924" stroke="#f98924"></path><path d="M846 0L833 0L836 25.9Z" fill="#fcb154" stroke="#fcb154"></path><path d="M0 540.3L0 561.1L83 555.1Z" fill="#ffc773" stroke="#ffc773"></path><path d="M900 80.7L842 70.9L883 126.6Z" fill="#fa9a37" stroke="#fa9a37"></path><path d="M900 570.1L900 550.3L870 548.1Z" fill="#fdb95e" stroke="#fdb95e"></path><path d="M870 548.1L900 550.3L890 520.3Z" fill="#fba241" stroke="#fba241"></path><path d="M890 520.3L900 550.3L900 487.4Z" fill="#fcb154" stroke="#fcb154"></path><path d="M900 138.6L900 80.7L883 126.6Z" fill="#fa9a37" stroke="#fa9a37"></path><path d="M900 80.7L900 79.9L842 70.9Z" fill="#fa9a37" stroke="#fa9a37"></path><path d="M900 600L900 570.1L870 548.1Z" fill="#f7770f" stroke="#f7770f"></path><path d="M0 561.1L0 600L62 600Z" fill="#fa9a37" stroke="#fa9a37"></path><path d="M831 600L900 600L870 548.1Z" fill="#fcb154" stroke="#fcb154"></path><path d="M69 0L0 8.9L66 33.9Z" fill="#fdb95e" stroke="#fdb95e"></path><path d="M69 0L0 0L0 8.9Z" fill="#ffc773" stroke="#ffc773"></path><path d="M900 79.9L900 0L836 25.9Z" fill="#f9922e" stroke="#f9922e"></path></g></svg>